HIERARCHY
ROOT Hips
{
	OFFSET 0.000000 0.000000 0.000000
	CHANNELS 6 Xposition Yposition Zposition Zrotation Yrotation Xrotation 
	JOINT LHipJoint
	{
		OFFSET 0.000000 0.000000 0.000000
		CHANNELS 3 Zrotation Yrotation Xrotation
		JOINT LeftUpLeg
		{
			OFFSET 1.363060 -1.794630 0.839290
			CHANNELS 3 Zrotation Yrotation Xrotation
			JOINT LeftLeg
			{
				OFFSET 2.448110 -6.726130 0.000000
				CHANNELS 3 Zrotation Yrotation Xrotation
				JOINT LeftFoot
				{
					OFFSET 2.562200 -7.039590 0.000000
					CHANNELS 3 Zrotation Yrotation Xrotation
					JOINT LeftToeBase
					{
						OFFSET 0.157640 -0.433110 2.322550
						CHANNELS 3 Zrotation Yrotation Xrotation
						End Site
						{
							OFFSET 0.000000 0.000000 0.000000
						}
					}
				}
			}
		}
	}
	JOINT RHipJoint
	{
		OFFSET 0.000000 0.000000 0.000000
		CHANNELS 3 Zrotation Yrotation Xrotation
		JOINT RightUpLeg
		{
			OFFSET -1.305520 -1.794630 0.839290
			CHANNELS 3 Zrotation Yrotation Xrotation
			JOINT RightLeg
			{
				OFFSET -2.542530 -6.985550 0.000000
				CHANNELS 3 Zrotation Yrotation Xrotation
				JOINT RightFoot
				{
					OFFSET -2.568260 -7.056230 0.000000
					CHANNELS 3 Zrotation Yrotation Xrotation
					JOINT RightToeBase
					{
						OFFSET -0.164730 -0.452590 2.363150
						CHANNELS 3 Zrotation Yrotation Xrotation
						End Site
						{
							OFFSET 0.000000 0.000000 0.000000
						}
					}
				}
			}
		}
	}
}
MOTION
Frames: 28
Frame Time: 0.008333
0.787896 17.524877 2.923592 -179.397073 -84.196019 -159.581262 -10.898546 1.662066 0.058217 -8.188369 6.602617 -12.113600 -2.632260 -1.043609 2.227831 -0.013216 -0.546657 0.103428 0.130900 -0.000001 -40.955800 9.131228 -0.029289 0.279288 10.471418 -2.076441 -46.483783 1.708277 -2.814174 36.042001 -0.867570 -3.518204 1.095883 -1.069400 0.000000 -50.723000
0.528288 17.474688 2.890091 174.962650 -85.171147 -153.984296 -10.858749 1.703381 -0.053871 -8.257175 6.314467 -10.827367 -2.660227 -1.048083 2.109291 -0.053494 -0.951676 -0.162444 0.084200 -0.000000 -41.822600 9.078968 0.099133 0.551733 9.677826 -1.948301 -46.978768 1.982771 -2.497595 32.188474 -0.786684 -3.160747 1.471396 -1.082400 0.000000 -50.314000
0.269206 17.415282 2.852250 166.139956 -86.172587 -145.196644 -10.742707 1.721700 -0.193737 -8.334941 5.971886 -9.521985 -2.698445 -1.059641 2.060352 -0.093748 -1.373850 -0.515153 0.041900 0.000000 -42.839300 9.102961 0.242340 0.867906 8.669417 -1.828548 -47.381345 2.212401 -2.134269 28.132911 -0.718989 -2.904747 2.043156 -1.119400 -0.000000 -49.713900
0.010406 17.347314 2.810969 153.137133 -87.091207 -132.224266 -10.504620 1.754490 -0.360591 -8.391458 5.609483 -8.192230 -2.746468 -1.066817 2.048968 -0.130493 -1.809209 -0.939495 0.004601 0.000000 -44.024600 9.247553 0.449898 1.215316 7.503062 -1.717717 -47.681211 2.375583 -1.720707 23.928285 -0.662458 -2.743539 2.777035 -1.176300 -0.000000 -49.054600
-0.248169 17.271497 2.767206 136.169036 -87.707382 -115.295667 -10.178864 1.857825 -0.536303 -8.429845 5.268147 -6.841933 -2.798689 -1.047705 2.031278 -0.157194 -2.231179 -1.417048 -0.026600 -0.000000 -45.368001 9.499998 0.781710 1.560413 6.237558 -1.610020 -47.868356 2.465889 -1.253371 19.654399 -0.603152 -2.633251 3.632604 -1.244100 0.000000 -48.489300
-0.507162 17.188584 2.721998 118.163676 -87.865639 -97.349608 -9.902723 2.026767 -0.703281 -8.498428 4.963263 -5.458911 -2.848228 -0.998587 1.984816 -0.174701 -2.624501 -1.911696 -0.050700 0.000000 -46.832000 9.755788 1.208690 1.865766 4.894451 -1.556345 -47.963401 2.508702 -0.748518 15.396734 -0.526658 -2.511273 4.550253 -1.307400 0.000000 -48.159200
-0.766897 17.099427 2.676186 102.871927 -87.626647 -82.159192 -9.743168 2.203215 -0.864242 -8.616348 4.682021 -4.011343 -2.893203 -0.938305 1.922073 -0.190509 -3.000428 -2.382381 -0.067400 0.000001 -48.363300 9.946370 1.644491 2.114896 3.506452 -1.653956 -47.996155 2.532158 -0.240575 11.229197 -0.429840 -2.322347 5.451560 -1.342300 0.000000 -48.171600
-1.028293 17.004943 2.630513 91.622056 -87.137174 -71.067648 -9.666249 2.357946 -1.025337 -8.759665 4.410149 -2.466605 -2.932928 -0.880049 1.846325 -0.207464 -3.354454 -2.797524 -0.077200 -0.000001 -49.903700 10.079939 2.049919 2.297088 2.158999 -1.971658 -47.981209 2.550829 0.240668 7.239949 -0.309554 -1.999370 6.256786 -1.317900 -0.000000 -48.589300
-1.295063 16.910076 2.586355 72.258000 -86.199172 -51.846568 -9.730086 2.506526 -0.940267 -8.746222 3.225461 -1.190647 -2.919800 -0.789399 2.146440 -0.213986 -3.651597 -3.348905 -0.075200 -0.000000 -51.309800 10.107561 2.508119 2.213313 1.234076 -3.555811 -47.986970 2.699418 0.697978 3.506015 -0.108479 -1.252442 6.825584 -1.142800 0.000000 -49.491200
-1.562085 16.808707 2.542045 68.354214 -85.440714 -48.254099 -9.712537 2.610097 -1.105968 -8.855601 2.989091 0.566389 -2.945971 -0.739755 2.061574 -0.232325 -3.938154 -3.610382 -0.075800 -0.000001 -52.753100 10.166728 2.850195 2.234853 0.264854 -4.369623 -47.929028 2.738127 1.075218 0.202176 0.074328 -0.444315 7.237404 -0.913300 0.000000 -50.710000
-1.833628 16.705875 2.499111 65.346689 -84.717610 -45.615493 -9.704728 2.711219 -1.261743 -8.892595 2.791184 2.372766 -2.960684 -0.685989 1.989103 -0.248291 -4.176254 -3.789249 -0.075700 0.000000 -54.157400 10.191432 3.169073 2.187617 -0.405587 -5.332620 -47.906514 2.799789 1.394872 -2.624207 0.283269 0.606189 7.397737 -0.592200 0.000000 -52.148400
-2.110761 16.603145 2.457490 62.837139 -84.058312 -43.504103 -9.709990 2.810638 -1.402848 -8.834358 2.639158 4.168389 -2.962163 -0.626215 1.957203 -0.261890 -4.368319 -3.885425 -0.076700 0.000001 -55.568800 10.176405 3.453394 2.098586 -0.782094 -6.344583 -47.953963 2.881975 1.659454 -4.919526 0.500906 1.812519 7.302130 -0.222100 0.000000 -53.607400
-2.394294 16.502116 2.416893 60.638662 -83.483114 -41.698481 -9.729590 2.907604 -1.523820 -8.671110 2.519329 5.898423 -2.948213 -0.559736 1.981774 -0.271951 -4.502022 -3.893205 -0.080200 0.000000 -57.058600 10.124303 3.688643 2.002492 -0.926832 -7.279463 -48.079706 2.971465 1.873285 -6.675118 0.701686 3.015994 6.988656 0.132399 0.000000 -54.902400
-2.685181 16.404138 2.376898 58.661436 -83.002740 -40.067595 -9.763505 3.002210 -1.618467 -8.405766 2.412491 7.502955 -2.917969 -0.485843 2.084574 -0.277738 -4.570318 -3.805053 -0.087000 -0.000000 -58.720400 10.045043 3.860956 1.933214 -0.929196 -8.023061 -48.284927 3.053456 2.037834 -7.893505 0.861749 4.043119 6.516857 0.412300 -0.000000 -55.911100
-2.983953 16.310457 2.337052 56.857424 -82.621203 -38.530223 -9.810725 3.094875 -1.680095 -8.050801 2.292484 8.929271 -2.870780 -0.403495 2.286486 -0.278548 -4.566420 -3.606730 -0.097900 0.000001 -60.655600 9.952395 3.958923 1.919679 -0.890318 -8.479020 -48.556126 3.112791 2.152512 -8.598452 0.960468 4.723007 5.975690 0.574300 -0.000001 -56.630200
-3.290818 16.221930 2.297330 55.200527 -82.344741 -37.041501 -9.868663 3.185833 -1.702945 -7.627552 2.116797 10.170370 -2.803620 -0.312447 2.573407 -0.272006 -4.461480 -3.264615 -0.113300 0.000000 -62.957800 9.855230 3.977112 1.970407 -0.866260 -8.604934 -48.896847 3.144951 2.209496 -8.767519 0.990037 4.974853 5.433153 0.610801 0.000000 -57.133401
-3.605842 16.139365 2.257504 53.616130 -82.173915 -35.507728 -9.939411 3.276661 -1.683080 -7.141736 1.881316 11.173966 -2.716300 -0.209862 2.988192 -0.259408 -4.276930 -2.759901 -0.133000 -0.000000 -65.693000 9.762282 3.910123 2.100984 -0.915001 -8.359030 -49.311259 3.141147 2.205671 -8.428664 0.939948 4.711457 4.996305 0.516700 0.000000 -57.551700
-3.928679 16.063222 2.217950 52.009440 -82.117015 -33.833242 -10.025084 3.368234 -1.619516 -6.593666 1.579512 11.931067 -2.605500 -0.093823 3.543006 -0.240576 -4.018378 -2.058520 -0.156300 0.000000 -68.876200 9.672343 3.757646 2.307231 -1.026098 -7.749753 -49.833858 3.102805 2.132280 -7.554261 0.811308 3.951860 4.739398 0.306500 0.000000 -57.992899
-4.258754 15.993772 2.179056 50.248794 -82.181623 -31.893270 -10.128721 3.462161 -1.514476 -5.972501 1.229702 12.424604 -2.468485 0.038016 4.270578 -0.216277 -3.711656 -1.134777 -0.182700 0.000000 -72.452700 9.580470 3.523858 2.579581 -1.154173 -6.813548 -50.522277 3.034058 1.980460 -6.106808 0.611290 2.771937 4.726006 -0.005600 -0.000000 -58.510300
-4.594945 15.931049 2.141699 48.100926 -82.378461 -29.479300 -10.255251 3.559267 -1.375271 -5.246564 0.877164 12.647037 -2.301587 0.187776 5.209119 -0.187769 -3.399818 0.032171 -0.213900 0.000000 -76.296300 9.477008 3.217553 2.896414 -1.209422 -5.618685 -51.432490 2.943964 1.741002 -4.041949 0.356797 1.308395 5.002275 -0.403800 0.000000 -59.085000
-4.936192 15.874756 2.106727 45.261700 -82.711082 -26.318559 -10.405511 3.661867 -1.210089 -4.385430 0.576140 12.597435 -2.101983 0.356367 6.401097 -0.154783 -3.125440 1.452354 -0.255000 -0.000001 -80.208700 9.355886 2.856186 3.227184 -1.085128 -4.263628 -52.610329 2.844544 1.404869 -1.313505 0.075781 -0.253994 5.575248 -0.863600 -0.000001 -59.575800
-5.280703 15.824306 2.074169 41.511756 -83.169378 -22.232125 -10.567037 3.774789 -1.025401 -3.411151 0.344187 12.311767 -1.869683 0.542397 7.856453 -0.110494 -2.871199 3.132461 -0.308000 0.000000 -83.923200 9.223035 2.472761 3.532610 -0.709944 -2.861959 -54.062200 2.742060 0.964862 2.101246 -0.196458 -1.715583 6.406699 -1.343900 -0.000000 -59.735799
-5.626670 15.779110 2.044666 36.377586 -83.754000 -16.786775 -10.733644 3.904229 -0.832136 -2.313545 0.233231 11.810922 -1.607860 0.744893 9.600817 -0.048276 -2.645770 5.048890 -0.378000 -0.000000 -87.153100 9.087987 2.104930 3.773928 -0.029813 -1.492035 -55.717800 2.638442 0.428718 6.137407 -0.430466 -2.937524 7.418549 -1.798200 0.000000 -59.251400
-5.971907 15.738737 2.018163 29.435384 -84.473280 -9.586411 -10.902541 4.064302 -0.637928 -1.129756 0.264993 11.126290 -1.328020 0.963101 11.632949 0.044370 -2.398454 7.156656 -0.459500 0.000000 -89.593900 8.964831 1.803148 3.919416 0.940872 -0.188534 -57.452030 2.525461 -0.175283 10.639253 -0.607764 -3.853761 8.495678 -2.181301 0.000000 -57.888200
-6.314192 15.703105 1.993684 20.599164 -85.332959 -0.552809 -11.101429 4.274685 -0.445549 0.036974 0.428022 10.297247 -1.051291 1.196303 13.926360 0.182756 -2.019370 9.388094 -0.523600 0.000000 -90.947600 8.846721 1.616851 3.945671 2.121460 1.027364 -59.124613 2.388896 -0.798682 15.399585 -0.717719 -4.440940 9.492685 -2.452800 0.000000 -55.642100
-6.651301 15.672573 1.970595 9.969183 -86.308684 10.211713 -11.419996 4.533776 -0.261183 1.098272 0.729353 9.332859 -0.796613 1.439650 16.476904 0.373815 -1.426865 11.640593 -0.528800 0.000000 -90.954100 8.667981 1.548883 3.847380 3.410039 2.135648 -60.607894 2.216081 -1.380309 20.189927 -0.760821 -4.723943 10.261143 -2.594000 0.000000 -52.770900
-6.981495 15.647876 1.948558 -1.946589 -87.258901 22.192408 -11.954170 4.778150 -0.100312 2.012434 1.157194 8.236038 -0.558099 1.671934 19.302452 0.609480 -0.570377 13.786170 -0.424500 0.000000 -89.428100 8.326604 1.514118 3.652445 4.694206 3.082069 -61.818163 2.002448 -1.873809 24.809553 -0.752740 -4.764046 10.667841 -2.610500 -0.000000 -49.703200
-7.303271 15.629768 1.926450 -13.856988 -87.949623 34.080971 -12.652642 4.898877 0.013858 2.791860 1.639565 7.035088 -0.306476 1.860170 22.420566 0.870479 0.602935 15.684312 -0.152100 -0.000000 -86.292100 7.819557 1.396875 3.416468 5.890863 3.782441 -62.732210 1.766079 -2.278258 29.123876 -0.721485 -4.627412 10.603832 -2.516100 -0.000000 -46.863700
